<svg xmlns="http://www.w3.org/2000/svg" width="16" height="16" fill="none" viewBox="0 0 16 16"><path fill="#FCFCFC" fill-rule="evenodd" d="M1.61526 1.61526a.96187.96187 0 0 1 .6803-.28193h8.95884c.3682 0 .6667-.29847.6667-.66666 0-.3682-.2985-.66667-.6667-.66667H2.29556C1.68665 0 1.10273.242.67226.67265A2.29658 2.29658 0 0 0 0 2.29624V13.7033c0 .6089.24178 1.1929.67225 1.6236a2.29542 2.29542 0 0 0 1.62331.6726H13.6978c.6089 0 1.1928-.242 1.6233-.6726a2.29696 2.29696 0 0 0 .6722-1.6236V7.99976c0-.36819-.2984-.66666-.6666-.66666-.3682 0-.6667.29847-.6667.66666v5.70354c0 .2555-.1014.5004-.2819.681a.96212.96212 0 0 1-.6803.2819H2.29556a.96205.96205 0 0 1-.6803-.2819.96334.96334 0 0 1-.28193-.681V2.29624a.96328.96328 0 0 1 .28193-.68098Zm14.20134.32514c.2532-.2673.2418-.68925-.0255-.94247-.2673-.25321-.6892-.2418-.9425.0255L7.61402 8.66042l-1.8316-1.93347c-.25321-.26729-.67517-.27871-.94246-.0255-.2673.25322-.27871.67517-.0255.94247l2.31558 2.44438a.66668.66668 0 0 0 .48398.2082.66668.66668 0 0 0 .48398-.2082l7.7186-8.1479Z" clip-rule="evenodd"/></svg>