<svg xmlns="http://www.w3.org/2000/svg" width="14" height="14" fill="none" viewBox="0 0 14 14"><g clip-path="url(#a)"><path fill="#2D3440" fill-rule="evenodd" d="M7.00026 2.12502c-2.69252 0-4.87524 2.18272-4.87524 4.87524 0 2.69252 2.18272 4.87524 4.87524 4.87524 2.69252 0 4.87524-2.18272 4.87524-4.87524 0-2.69252-2.18272-4.87524-4.87524-4.87524ZM.79169 7.00026c0-3.4289 2.77967-6.20857 6.20857-6.20857 3.42894 0 6.20854 2.77967 6.20854 6.20857 0 3.42894-2.7796 6.20854-6.20854 6.20854-3.4289 0-6.20857-2.7796-6.20857-6.20854Zm6.20838-.66692c.36819 0 .66667.29848.66667.66667v2.21676c0 .36819-.29848.66667-.66667.66667-.36819 0-.66666-.29848-.66666-.66667V7.00001c0-.36819.29847-.66667.66666-.66667Zm0-2.21675c-.36819 0-.66666.29847-.66666.66666s.29847.66667.66666.66667h.00583c.36819 0 .66667-.29848.66667-.66667 0-.36819-.29848-.66666-.66667-.66666h-.00583Z" clip-rule="evenodd"/></g><defs><clipPath id="a"><path fill="#fff" d="M0 0h14v14H0z"/></clipPath></defs></svg>